<?xml version="1.0" standalone="no"?>
<!DOCTYPE svg PUBLIC "-//W3C//DTD SVG 20010904//EN"
 "http://www.w3.org/TR/2001/REC-SVG-20010904/DTD/svg10.dtd">
<svg version="1.0" xmlns="http://www.w3.org/2000/svg"
 width="700.000000pt" height="700.000000pt" viewBox="0 0 700.000000 700.000000"
 preserveAspectRatio="xMidYMid meet">
<metadata>
Created by potrace 1.14, written by Peter Selinger 2001-2017
</metadata>
<g transform="translate(0.000000,700.000000) scale(0.100000,-0.100000)"
fill="#000000" stroke="none">
<path d="M3896 6716 l-26 -25 0 -526 c0 -289 -2 -525 -5 -525 -3 0 -47 11 -99
24 -147 39 -299 56 -488 56 -323 0 -589 -61 -873 -200 -632 -310 -1059 -940
-1113 -1642 l-7 -93 -495 -2 c-491 -3 -495 -3 -512 -24 -25 -29 -22 -55 7 -84
l24 -25 489 0 489 0 6 -99 c18 -301 146 -673 323 -937 348 -521 881 -837 1509
-895 223 -20 518 11 728 77 16 5 17 -24 17 -519 0 -515 0 -525 21 -551 23 -29
54 -33 87 -10 l22 15 0 557 0 558 68 28 c312 134 613 373 814 648 449 612 520
1403 189 2083 -158 324 -407 603 -716 804 -81 53 -263 148 -322 169 l-33 11 0
554 c0 594 1 580 -52 592 -21 5 -33 1 -52 -19z m-321 -1156 c66 -11 158 -30
205 -43 l85 -23 3 -52 3 -51 -750 -601 c-413 -330 -753 -600 -756 -600 -3 0
-5 115 -5 255 l0 255 -65 0 -65 0 0 -460 0 -460 -410 0 -410 0 0 34 c0 19 7
86 15 149 108 821 752 1475 1580 1601 142 22 426 20 570 -4z m528 -166 c546
-273 913 -757 1023 -1349 15 -80 19 -147 19 -335 -1 -216 -3 -245 -28 -361
-119 -560 -466 -1019 -968 -1282 -57 -30 -114 -58 -127 -62 -22 -6 -23 -4 -21
37 1 23 -1 52 -5 63 -4 11 -125 113 -269 227 l-262 208 -184 305 c-102 168
-188 305 -191 305 -4 0 -10 -21 -13 -48 -3 -26 -15 -72 -26 -103 -40 -107 -8
-121 -369 167 l-322 258 0 295 0 296 801 640 c440 352 809 648 820 658 14 13
19 31 19 72 0 30 3 55 6 55 3 0 47 -21 97 -46z m-1871 -2201 l3 -458 62 -3 63
-3 2 262 3 261 278 -222 278 -223 -23 -24 c-30 -32 -78 -61 -147 -89 -35 -14
-50 -25 -41 -28 8 -4 162 -55 341 -115 l326 -109 247 -197 247 -198 -3 -51 -3
-51 -80 -23 c-335 -96 -705 -91 -1052 14 -621 188 -1111 700 -1267 1325 -26
102 -55 292 -56 357 l0 32 410 0 410 0 2 -457z"/>
</g>
</svg>
